<svg aria-hidden="true" style="width:0;height:0;position:absolute;overflow:hidden" xmlns="http://www.w3.org/2000/svg"><defs><symbol id="icon-down" viewBox="0 0 51 32"><path d="M26.957 29.395c-.588.645-1.431 1.048-2.368 1.048s-1.78-.403-2.366-1.045l-.002-.003L1.088 6.153C-.784 4.095.675.799 3.456.799h42.272c2.781 0 4.24 3.296 2.368 5.354L26.96 29.395z"/></symbol><symbol id="tel" viewBox="0 0 32 32"><path fill="#008cef" style="fill:var(--color1,#008cef)" d="m27.245 21.072-3.949-.453a3.085 3.085 0 0 0-2.551.888l-2.861 2.861c-4.436-2.289-7.961-5.815-10.189-10.12l-.061-.131 2.875-2.877c.667-.667.995-1.6.885-2.552l-.451-3.92a3.116 3.116 0 0 0-3.091-2.752H5.159c-1.757 0-3.219 1.461-3.109 3.219.862 13.291 11.427 23.857 24.639 24.716l.078.004c1.757.107 3.219-1.355 3.219-3.112v-2.707a3.083 3.083 0 0 0-2.724-3.062l-.014-.001z"/></symbol><symbol id="icon-arrow" viewBox="0 0 21 32"><path fill="#008cef" style="fill:var(--color1,#008cef)" d="M10.37.329h-.001c-.609 0-1.103.494-1.103 1.103v26.081l-6.952-6.959A1.107 1.107 0 0 0 .75 22.12l8.839 8.844a1.1 1.1 0 0 0 1.564 0l8.839-8.845a1.108 1.108 0 0 0-1.566-1.565l.001-.001-6.952 6.959V1.433A1.108 1.108 0 0 0 10.371.327z"/></symbol><symbol id="icon-clip" viewBox="0 0 40 32"><path fill="#cdcdcd" style="fill:var(--color2,#cdcdcd)" d="M7.846 32c-1.605 0-3.03-.56-4.275-1.677-1.317-1.184-1.976-2.619-1.976-4.307s.659-3.123 1.976-4.306L24.227 2.032A7.483 7.483 0 0 1 27.823.168l.049-.008a8.424 8.424 0 0 1 4.245.243l-.06-.017c1.413.43 2.718 1.171 3.915 2.226a9 9 0 0 1 1.059 1.21c.325.442.587.904.79 1.387.398.929.629 2.01.629 3.146-.048 2.28-.91 4.182-2.586 5.709L20.237 28.968a1.132 1.132 0 0 1-.789.339h-.001l-.062.002c-.286 0-.547-.105-.747-.278l.001.001a.963.963 0 0 1-.358-.723v-.001l-.001-.049c0-.279.117-.531.305-.709l15.627-14.904c1.269-1.162 1.915-2.602 1.939-4.322.024-1.722-.586-3.13-1.832-4.227a8.044 8.044 0 0 0-2.496-1.594l-.054-.019a6.039 6.039 0 0 0-2.202-.408c-.288 0-.57.02-.847.058l.032-.004a5.128 5.128 0 0 0-2.877 1.325l.003-.003L5.222 23.13c-.885.795-1.328 1.752-1.328 2.87s.443 2.075 1.328 2.87c.408.366.851.64 1.33.822.48.184.982.253 1.509.21 1.054-.042 2.037-.483 2.946-1.322l16.416-15.677c.252-.227.477-.475.674-.745l.009-.014c.222-.298.375-.659.431-1.052l.001-.012a.961.961 0 0 0-.111-.57l.003.005a1.847 1.847 0 0 0-.43-.547l-.002-.002c-.454-.43-.896-.624-1.328-.581-.454.043-.97.312-1.544.806L12.768 21.997a1.242 1.242 0 0 1-1.102.288l.008.002a1.111 1.111 0 0 1-.523-.257l.001.001a.883.883 0 0 1-.358-.71v-.001c0-.28.107-.528.323-.742l12.357-11.84c.982-.859 1.976-1.333 2.982-1.418 1.149-.086 2.203.301 3.16 1.16.91.797 1.312 1.731 1.203 2.806-.107 1.077-.688 2.086-1.742 3.034L12.661 30.029c-1.341 1.205-2.838 1.85-4.49 1.936a.909.909 0 0 0-.167.017l.006-.001a.887.887 0 0 1-.161.016h-.001z"/></symbol><symbol id="icon-up" viewBox="0 0 107 32"><path fill="#008cef" style="fill:var(--color1,#008cef)" d="M53.333 0 99.52 32H7.147L53.334 0z"/></symbol><symbol id="icon-menu-open" viewBox="0 0 57 32"><path fill="#487996" style="fill:var(--color1,#487996)" d="M56.889 1.778c0 .982-.796 1.778-1.778 1.778H1.778a1.778 1.778 0 1 1 0-3.556h53.333c.982 0 1.778.796 1.778 1.778zm0 28.444c0 .982-.796 1.778-1.778 1.778H1.778a1.778 1.778 0 1 1 0-3.556h53.333c.982 0 1.778.796 1.778 1.778zm0-14.236c0 .974-.79 1.764-1.764 1.764H1.763a1.764 1.764 0 0 1 0-3.528h53.362c.974 0 1.764.789 1.764 1.764z"/></symbol><symbol id="icon-menu-close" viewBox="0 0 32 32"><path fill="#487996" style="fill:var(--color1,#487996)" d="m18.613 15.912 12.96-12.96A1.777 1.777 0 0 0 29.064.447l.002-.002-12.96 12.96L3.146.426A1.777 1.777 0 0 0 .641 2.935l-.002-.002 12.96 12.977L.62 28.87a1.78 1.78 0 1 0 2.505 2.51l.002-.003 12.977-12.96 12.96 12.96a1.777 1.777 0 0 0 2.505-2.509l.002.002-12.96-12.96z"/></symbol><symbol id="mobile-tel" viewBox="0 0 32 32"><path fill="#008cef" style="fill:var(--color1,#008cef)" d="m28.853 21.796-4.516-.516a3.535 3.535 0 0 0-2.915 1.013l-3.271 3.271A26.75 26.75 0 0 1 6.435 13.848l3.289-3.289a3.538 3.538 0 0 0 1.013-2.916l-.516-4.48A3.559 3.559 0 0 0 6.684.017H3.608c-2.009 0-3.68 1.671-3.556 3.68.942 15.182 13.084 27.307 28.249 28.249 2.009.124 3.68-1.547 3.68-3.556v-3.076c.018-1.796-1.333-3.307-3.129-3.52z"/></symbol></defs></svg>