<svg aria-hidden="true" style="position: absolute; width: 0; height: 0; overflow: hidden;" version="1.1" xmlns="http://www.w3.org/2000/svg" xmlns:xlink="http://www.w3.org/1999/xlink">
<defs>
<symbol id="icon-down" viewBox="0 0 51 32">
<path d="M26.957 29.395c-0.588 0.645-1.431 1.048-2.368 1.048s-1.78-0.403-2.366-1.045l-0.002-0.003-21.133-23.242c-1.872-2.058-0.413-5.354 2.368-5.354h42.272c2.781 0 4.24 3.296 2.368 5.354l-21.136 23.242z"></path>
</symbol>
<symbol id="tel" viewBox="0 0 32 32">
<path fill="#008cef" style="fill: var(--color1, #008cef)" d="M27.245 21.072l-3.949-0.453c-0.108-0.014-0.234-0.021-0.361-0.021-0.856 0-1.63 0.348-2.19 0.909l-2.861 2.861c-4.436-2.289-7.961-5.815-10.189-10.12l-0.061-0.131 2.875-2.877c0.667-0.667 0.995-1.6 0.885-2.552l-0.451-3.92c-0.187-1.557-1.499-2.752-3.091-2.752h-2.693c-1.757 0-3.219 1.461-3.109 3.219 0.862 13.291 11.427 23.857 24.639 24.716l0.078 0.004c1.757 0.107 3.219-1.355 3.219-3.112v-2.693c0-0.004 0-0.009 0-0.014 0-1.581-1.191-2.885-2.724-3.062l-0.014-0.001z"></path>
</symbol>
<symbol id="icon-arrow" viewBox="0 0 21 32">
<path fill="#008cef" style="fill: var(--color1, #008cef)" d="M10.37 0.329c-0 0-0.001 0-0.001 0-0.609 0-1.103 0.494-1.103 1.103 0 0.001 0 0.002 0 0.002v-0 26.079l-6.952-6.959c-0.2-0.2-0.477-0.324-0.782-0.324-0.611 0-1.107 0.496-1.107 1.107 0 0.306 0.124 0.583 0.325 0.783v0l8.839 8.844c0.2 0.201 0.477 0.325 0.782 0.325s0.582-0.124 0.782-0.325l8.839-8.845c0.18-0.196 0.291-0.46 0.291-0.748 0-0.612-0.496-1.108-1.108-1.108-0.289 0-0.552 0.11-0.749 0.291l0.001-0.001-6.952 6.959v-26.079c-0.001-0.61-0.495-1.104-1.104-1.106h-0z"></path>
</symbol>
<symbol id="icon-clip" viewBox="0 0 40 32">
<path fill="#cdcdcd" style="fill: var(--color2, #cdcdcd)" d="M7.846 32c-1.605 0-3.030-0.56-4.275-1.677-1.317-1.184-1.976-2.619-1.976-4.307s0.659-3.123 1.976-4.306l20.656-19.678c0.984-0.92 2.221-1.58 3.596-1.864l0.049-0.008c0.496-0.104 1.067-0.164 1.651-0.164 0.905 0 1.777 0.143 2.594 0.407l-0.060-0.017c1.413 0.43 2.718 1.171 3.915 2.226 0.384 0.366 0.736 0.768 1.059 1.21 0.325 0.442 0.587 0.904 0.79 1.387 0.398 0.929 0.629 2.010 0.629 3.146v0c-0.048 2.28-0.91 4.182-2.586 5.709l-15.627 14.904c-0.202 0.205-0.481 0.334-0.789 0.339h-0.001c-0.019 0.001-0.040 0.002-0.062 0.002-0.286 0-0.547-0.105-0.747-0.278l0.001 0.001c-0.213-0.173-0.35-0.432-0.358-0.723l-0-0.001c-0.001-0.015-0.001-0.032-0.001-0.049 0-0.279 0.117-0.531 0.305-0.709l0-0 15.627-14.904c1.269-1.162 1.915-2.602 1.939-4.322 0.024-1.722-0.586-3.13-1.832-4.227-0.717-0.673-1.563-1.218-2.496-1.594l-0.054-0.019c-0.653-0.258-1.41-0.408-2.202-0.408-0.288 0-0.57 0.020-0.847 0.058l0.032-0.004c-1.119 0.136-2.107 0.614-2.877 1.325l0.003-0.003-20.656 19.678c-0.885 0.795-1.328 1.752-1.328 2.87s0.443 2.075 1.328 2.87c0.408 0.366 0.851 0.64 1.33 0.822 0.48 0.184 0.982 0.253 1.509 0.21 1.054-0.042 2.037-0.483 2.946-1.322l16.416-15.677c0.252-0.227 0.477-0.475 0.674-0.745l0.009-0.014c0.222-0.298 0.375-0.659 0.431-1.052l0.001-0.012c0.004-0.032 0.006-0.069 0.006-0.107 0-0.168-0.042-0.326-0.117-0.463l0.003 0.005c-0.112-0.215-0.257-0.397-0.43-0.547l-0.002-0.002c-0.454-0.43-0.896-0.624-1.328-0.581-0.454 0.043-0.97 0.312-1.544 0.806l-12.358 11.806c-0.22 0.197-0.511 0.318-0.831 0.318-0.093 0-0.184-0.010-0.271-0.030l0.008 0.002c-0.202-0.040-0.379-0.13-0.523-0.257l0.001 0.001c-0.218-0.162-0.358-0.42-0.358-0.71 0-0 0-0.001 0-0.001v0c0-0.28 0.107-0.528 0.323-0.742l12.357-11.84c0.982-0.859 1.976-1.333 2.982-1.418 1.149-0.086 2.203 0.301 3.16 1.16 0.91 0.797 1.312 1.731 1.203 2.806-0.107 1.077-0.688 2.086-1.742 3.034l-16.416 15.709c-1.341 1.205-2.838 1.85-4.49 1.936-0.058 0.001-0.113 0.006-0.167 0.017l0.006-0.001c-0.048 0.010-0.104 0.015-0.161 0.016h-0.001z"></path>
</symbol>
<symbol id="icon-up" viewBox="0 0 107 32">
<path fill="#008cef" style="fill: var(--color1, #008cef)" d="M53.333 0l46.187 32h-92.373l46.187-32z"></path>
</symbol>
<symbol id="icon-menu-open"  viewBox="0 0 57 32">
<path fill="#487996" style="fill: var(--color1, #487996)" d="M56.889 1.778c0 0.982-0.796 1.778-1.778 1.778v0h-53.333c-0.982 0-1.778-0.796-1.778-1.778s0.796-1.778 1.778-1.778v0h53.333c0.982 0 1.778 0.796 1.778 1.778v0zM56.889 30.222c0 0.982-0.796 1.778-1.778 1.778v0h-53.333c-0.982 0-1.778-0.796-1.778-1.778s0.796-1.778 1.778-1.778v0h53.333c0.982 0 1.778 0.796 1.778 1.778v0zM56.889 15.986c0 0.974-0.79 1.764-1.764 1.764v0h-53.362c-0.974 0-1.764-0.79-1.764-1.764s0.79-1.764 1.764-1.764v0h53.362c0.974 0 1.764 0.789 1.764 1.764z"></path>
</symbol>
<symbol id="icon-menu-close" viewBox="0 0 32 32">
<path fill="#487996" style="fill: var(--color1, #487996)" d="M18.613 15.912l12.96-12.96c0.268-0.309 0.431-0.716 0.431-1.161 0-0.982-0.796-1.777-1.777-1.777-0.445 0-0.851 0.163-1.163 0.433l0.002-0.002-12.96 12.96-12.96-12.979c-0.309-0.268-0.716-0.431-1.161-0.431-0.982 0-1.777 0.796-1.777 1.777 0 0.445 0.163 0.851 0.433 1.163l-0.002-0.002 12.96 12.977-12.979 12.96c-0.394 0.329-0.642 0.82-0.642 1.369 0 0.983 0.797 1.78 1.78 1.78 0.549 0 1.040-0.249 1.367-0.639l0.002-0.003 12.977-12.96 12.96 12.96c0.309 0.268 0.716 0.431 1.161 0.431 0.982 0 1.777-0.796 1.777-1.777 0-0.445-0.163-0.851-0.433-1.163l0.002 0.002-12.96-12.96z"></path>
</symbol>
<symbol id="mobile-tel" viewBox="0 0 32 32">
<path fill="#008cef" style="fill: var(--color1, #008cef)" d="M28.853 21.796l-4.516-0.516c-0.531-0.062-1.069-0.004-1.574 0.172s-0.964 0.463-1.341 0.841l-3.271 3.271c-5.047-2.567-9.149-6.669-11.716-11.716l3.289-3.289c0.764-0.764 1.138-1.831 1.013-2.916l-0.516-4.48c-0.101-0.867-0.517-1.667-1.169-2.247s-1.495-0.9-2.368-0.899h-3.076c-2.009 0-3.68 1.671-3.556 3.68 0.942 15.182 13.084 27.307 28.249 28.249 2.009 0.124 3.68-1.547 3.68-3.556v-3.076c0.018-1.796-1.333-3.307-3.129-3.52z"></path>
</symbol>
</defs>
</svg>
